Smooth-talking, ambitious Santos (Tariq Alexander) heads a small but tight crew, consisting of his three childhood friends, in his Harlem neighborhood. The four friends, known as "The Stick Up Kids," mistakenly believe they can outrun any and all trouble. Although they are skilled at petty crime, the friends must pull off a complex con after an unforeseen death tests their relationships with one another and their community, which is in danger.

M8xQHet8.png
Video
ID : 1
Format : AVC
Format/Info : Advanced Video Codec
Format profile : Main@L3.0
Format settings, CABAC : Yes
Format settings, ReFrames : 2 frames
Codec ID : avc1
Codec ID/Info : Advanced Video Coding
Duration : 1h 59mn
Bit rate mode : Variable
Bit rate : 658 Kbps
Width : 718 pixels
Height : 480 pixels
Display aspect ratio : 16:9
Frame rate mode : Variable
Frame rate : 23.976 fps
Minimum frame rate : 11.989 fps
Maximum frame rate : 29.970 fps
Color space : YUV
Chroma subsampling : 4:2:0
Bit depth : 8 bits
Scan type : Progressive
Bits/(Pixel*Frame) : 0.080
Stream size : 557 MiB (80%)
Writing library : x264 core 79

Audio
ID : 2
Format : AAC
Format/Info : Advanced Audio Codec
Format version : Version 4
Format profile : LC
Format settings, SBR : No
Codec ID : 40
Duration : 1h 59mn
Bit rate mode : Variable
Bit rate : 160 Kbps
Maximum bit rate : 232 Kbps
Channel(s) : 2 channels
Channel positions : Front: L R
Sampling rate : 48.0 KHz
Stream size : 136 MiB (20%)
Language : English